<svg width="53" height="53" viewBox="0 0 53 53" fill="none" xmlns="http://www.w3.org/2000/svg">
<path d="M26.5 52.75C22.8688 52.75 19.4563 52.0605 16.2625 50.6815C13.0688 49.3025 10.2906 47.4326 7.92813 45.0719C5.56563 42.7111 3.69575 39.933 2.3185 36.7375C0.941254 33.542 0.251753 30.1295 0.250003 26.5C0.248253 22.8705 0.937753 19.458 2.3185 16.2625C3.69925 13.067 5.56913 10.2889 7.92813 7.92813C10.2871 5.56738 13.0653 3.6975 16.2625 2.3185C19.4598 0.9395 22.8723 0.25 26.5 0.25C30.1278 0.25 33.5403 0.9395 36.7375 2.3185C39.9348 3.6975 42.7129 5.56738 45.0719 7.92813C47.4309 10.2889 49.3016 13.067 50.6841 16.2625C52.0666 19.458 52.7553 22.8705 52.75 26.5C52.7448 30.1295 52.0553 33.542 50.6815 36.7375C49.3078 39.933 47.4379 42.7111 45.0719 45.0719C42.7059 47.4326 39.9277 49.3034 36.7375 50.6841C33.5473 52.0649 30.1348 52.7535 26.5 52.75ZM26.5 47.5C32.3625 47.5 37.3281 45.4656 41.3969 41.3969C45.4656 37.3281 47.5 32.3625 47.5 26.5C47.5 20.6375 45.4656 15.6719 41.3969 11.6031C37.3281 7.53437 32.3625 5.5 26.5 5.5C20.6375 5.5 15.6719 7.53437 11.6031 11.6031C7.53438 15.6719 5.5 20.6375 5.5 26.5C5.5 32.3625 7.53438 37.3281 11.6031 41.3969C15.6719 45.4656 20.6375 47.5 26.5 47.5ZM26.5 42.25C22.125 42.25 18.4063 40.7188 15.3438 37.6562C12.2813 34.5938 10.75 30.875 10.75 26.5C10.75 22.125 12.2813 18.4062 15.3438 15.3438C18.4063 12.2812 22.125 10.75 26.5 10.75C30.875 10.75 34.5938 12.2812 37.6563 15.3438C40.7188 18.4062 42.25 22.125 42.25 26.5C42.25 30.875 40.7188 34.5938 37.6563 37.6562C34.5938 40.7188 30.875 42.25 26.5 42.25ZM26.5 37C29.3875 37 31.8594 35.9719 33.9156 33.9156C35.9719 31.8594 37 29.3875 37 26.5C37 23.6125 35.9719 21.1406 33.9156 19.0844C31.8594 17.0281 29.3875 16 26.5 16C23.6125 16 21.1406 17.0281 19.0844 19.0844C17.0281 21.1406 16 23.6125 16 26.5C16 29.3875 17.0281 31.8594 19.0844 33.9156C21.1406 35.9719 23.6125 37 26.5 37ZM26.5 31.75C25.0563 31.75 23.8208 31.2364 22.7935 30.2091C21.7663 29.1819 21.2518 27.9455 21.25 26.5C21.2483 25.0545 21.7628 23.819 22.7935 22.7935C23.8243 21.768 25.0598 21.2535 26.5 21.25C27.9403 21.2465 29.1766 21.761 30.2091 22.7935C31.2416 23.826 31.7553 25.0615 31.75 26.5C31.7448 27.9385 31.2311 29.1749 30.2091 30.2091C29.1871 31.2434 27.9508 31.757 26.5 31.75Z" fill="url(#paint0_linear_15_224)"/>
<defs>
<linearGradient id="paint0_linear_15_224" x1="0.25" y1="21.9062" x2="52.75" y2="21.9062" gradientUnits="userSpaceOnUse">
<stop stop-color="#8BAC43"/>
<stop offset="1" stop-color="#36578D"/>
</linearGradient>
</defs>
</svg>
