<svg width="59" height="59" viewBox="0 0 59 59" fill="none" xmlns="http://www.w3.org/2000/svg">
<path d="M29.5 13.75C33.6772 13.75 37.6832 15.4094 40.6369 18.3631C43.5906 21.3168 45.25 25.3228 45.25 29.5C45.25 35.3275 42.0737 40.42 37.375 43.15V47.875C37.375 48.5712 37.0984 49.2389 36.6062 49.7312C36.1139 50.2234 35.4462 50.5 34.75 50.5H24.25C23.5538 50.5 22.8861 50.2234 22.3938 49.7312C21.9016 49.2389 21.625 48.5712 21.625 47.875V43.15C16.9263 40.42 13.75 35.3275 13.75 29.5C13.75 25.3228 15.4094 21.3168 18.3631 18.3631C21.3168 15.4094 25.3228 13.75 29.5 13.75ZM34.75 53.125V55.75C34.75 56.4462 34.4734 57.1139 33.9812 57.6062C33.4889 58.0984 32.8212 58.375 32.125 58.375H26.875C26.1788 58.375 25.5111 58.0984 25.0188 57.6062C24.5266 57.1139 24.25 56.4462 24.25 55.75V53.125H34.75ZM50.5 26.875H58.375V32.125H50.5V26.875ZM0.625 26.875H8.5V32.125H0.625V26.875ZM32.125 0.625V8.5H26.875V0.625H32.125ZM10.915 7.1875L16.5063 12.805L12.7788 16.5063L7.1875 10.9412L10.915 7.1875ZM42.4938 12.7788L48.0588 7.1875L51.8125 10.9412L46.2213 16.5063L42.4938 12.7788Z" fill="url(#paint0_linear_15_216)"/>
<defs>
<linearGradient id="paint0_linear_15_216" x1="0.625" y1="24.4469" x2="58.375" y2="24.4469" gradientUnits="userSpaceOnUse">
<stop stop-color="#8BAC43"/>
<stop offset="1" stop-color="#36578D"/>
</linearGradient>
</defs>
</svg>
