<svg width="51" height="46" viewBox="0 0 51 46" fill="none" xmlns="http://www.w3.org/2000/svg">
<path d="M24.954 45.3689C24.3117 45.3689 23.7473 45.1502 23.2608 44.7127C22.7743 44.2787 22.5311 43.7065 22.5311 42.9959C22.5311 42.6565 22.6055 42.2802 22.7542 41.8672C22.903 41.4542 23.1252 41.0998 23.421 40.8041L33.0888 31.1388L31.6398 29.6898L21.9877 39.3551C21.6902 39.6526 21.3551 39.8748 20.9823 40.0218C20.6096 40.1706 20.2307 40.2449 19.8457 40.2449C19.1702 40.2449 18.5971 40.0096 18.1263 39.5388C17.6556 39.0681 17.4211 38.4958 17.4228 37.8221C17.4228 37.4178 17.5051 37.0232 17.6696 36.6382C17.8358 36.2532 18.045 35.9338 18.297 35.6801L27.9648 26.0148L26.529 24.5789L16.8637 34.2337C16.6012 34.4962 16.2748 34.7106 15.8846 34.8768C15.4943 35.0431 15.1023 35.1253 14.7086 35.1236C14.0418 35.1236 13.4713 34.8864 12.9971 34.4122C12.5228 33.938 12.2857 33.3674 12.2857 32.7007C12.2857 32.3157 12.3592 31.9368 12.5062 31.5641C12.6532 31.1913 12.8755 30.8562 13.173 30.5587L22.2345 21.4972L20.7855 20.0639L11.7397 29.1255C11.4877 29.3774 11.1666 29.5866 10.7763 29.7528C10.3843 29.9173 9.9871 29.9996 9.5846 29.9996C8.8741 29.9996 8.29222 29.7729 7.83897 29.3197C7.38747 28.8682 7.16172 28.2872 7.16172 27.5767C7.16172 27.1917 7.23522 26.8128 7.38222 26.4401C7.53097 26.0673 7.75322 25.7322 8.04897 25.4347L21.0165 12.4672L26.6707 18.1372C27.152 18.6185 27.6953 18.9588 28.3008 19.1583C28.9081 19.3596 29.5223 19.4602 30.1436 19.4602C31.4088 19.4602 32.4658 19.0437 33.3146 18.2107C34.1633 17.3777 34.5877 16.3128 34.5877 15.0161C34.5877 14.4036 34.4696 13.7858 34.2333 13.1628C33.9971 12.5416 33.6287 11.9798 33.1282 11.4776L26.1772 4.52657L28.7497 1.95407C29.3272 1.38707 30.0246 0.943449 30.8418 0.623199C31.6591 0.301199 32.4763 0.140199 33.2936 0.140199C34.1633 0.140199 35.0121 0.301199 35.8398 0.623199C36.6676 0.943449 37.3737 1.3967 37.9582 1.98295L49.2037 13.2337C49.755 13.7867 50.1916 14.4604 50.5136 15.2549C50.8356 16.0477 50.9966 16.9271 50.9966 17.8931C50.9966 18.7681 50.833 19.5949 50.5057 20.3737C50.1802 21.1524 49.7462 21.8131 49.2037 22.3556L27.0986 44.4764C26.8151 44.7599 26.4826 44.9787 26.1011 45.1327C25.7231 45.2884 25.3416 45.3663 24.9566 45.3663M5.02235 25.5764L2.30547 22.8596C1.56172 22.1263 1.00172 21.2452 0.625471 20.2162C0.249221 19.1854 0.0610962 18.1792 0.0610962 17.1974C0.0610962 16.1614 0.229096 15.2208 0.565096 14.3756C0.901096 13.5303 1.32985 12.8469 1.85135 12.3254L12.186 1.9777C12.7512 1.41245 13.3812 0.963574 14.076 0.631074C14.7672 0.298574 15.5223 0.132324 16.3413 0.132324C17.2198 0.132324 18.0248 0.288949 18.7563 0.602199C19.4913 0.913699 20.1616 1.3722 20.7671 1.9777L31.6976 12.9056C31.9601 13.1681 32.1736 13.4944 32.3381 13.8847C32.5026 14.275 32.5848 14.6451 32.5848 14.9951C32.5848 15.6951 32.3565 16.2831 31.8997 16.7591C31.4412 17.2316 30.862 17.4678 30.162 17.4678C29.7682 17.4678 29.3893 17.3969 29.0253 17.2552C28.6631 17.1117 28.3288 16.8868 28.0226 16.5806L21.0033 9.59545L5.02235 25.5764Z" fill="url(#paint0_linear_15_220)"/>
<defs>
<linearGradient id="paint0_linear_15_220" x1="0.0610962" y1="18.7924" x2="50.9966" y2="18.7924" gradientUnits="userSpaceOnUse">
<stop stop-color="#8BAC43"/>
<stop offset="1" stop-color="#36578D"/>
</linearGradient>
</defs>
</svg>
