<svg width="47" height="49" viewBox="0 0 47 49" fill="none" xmlns="http://www.w3.org/2000/svg">
<path d="M45.9896 2.86102C45.9615 2.37938 45.7575 1.92483 45.4163 1.58368C45.0752 1.24253 44.6206 1.03852 44.139 1.01039C25.4039 -0.089646 10.3971 5.55082 3.99864 16.1329C1.7809 19.7527 0.687987 23.9496 0.858486 28.1914C0.969787 30.904 1.52168 33.5804 2.49255 36.1157C2.54959 36.2717 2.6452 36.4107 2.77046 36.5199C2.89572 36.629 3.04656 36.7047 3.20893 36.7398C3.37131 36.7749 3.53993 36.7684 3.6991 36.7208C3.85826 36.6732 4.00279 36.5861 4.11923 36.4676L25.0372 15.2297C25.2201 15.0468 25.4373 14.9017 25.6763 14.8027C25.9153 14.7037 26.1714 14.6527 26.4301 14.6527C26.6888 14.6527 26.9449 14.7037 27.1839 14.8027C27.4229 14.9017 27.6401 15.0468 27.823 15.2297C28.0059 15.4126 28.151 15.6298 28.25 15.8688C28.349 16.1077 28.3999 16.3639 28.3999 16.6226C28.3999 16.8813 28.349 17.1374 28.25 17.3764C28.151 17.6154 28.0059 17.8326 27.823 18.0155L4.96333 41.2196L1.47126 44.7117C1.10809 45.0653 0.891271 45.5426 0.863913 46.0487C0.836555 46.5548 1.00066 47.0527 1.3236 47.4434C1.50046 47.6482 1.71765 47.8143 1.96159 47.9314C2.20554 48.0486 2.47101 48.1141 2.74143 48.1241C3.01185 48.134 3.28142 48.0881 3.53329 47.9892C3.78517 47.8902 4.01396 47.7405 4.20536 47.5492L8.33727 43.4173C11.817 45.1005 15.3288 46.0185 18.811 46.1415C19.085 46.1514 19.3582 46.1563 19.6305 46.1563C23.5961 46.1664 27.4864 45.0741 30.8672 43.0014C41.4492 36.6029 47.0921 21.5986 45.9896 2.86102Z" fill="url(#paint0_linear_7_57)"/>
<defs>
<linearGradient id="paint0_linear_7_57" x1="0.841187" y1="20.3656" x2="46.1258" y2="20.3656" gradientUnits="userSpaceOnUse">
<stop stop-color="#8BAC43"/>
<stop offset="1" stop-color="#36578D"/>
</linearGradient>
</defs>
</svg>
