<svg width="51" height="53" viewBox="0 0 51 53" fill="none" xmlns="http://www.w3.org/2000/svg">
<path d="M50.1198 2.87501V8.12501C50.1198 12.9984 48.1838 17.6721 44.7378 21.1181C41.2919 24.5641 36.6181 26.5 31.7448 26.5H29.1198V29.125H42.2447V47.5C42.2447 48.8924 41.6916 50.2277 40.7071 51.2123C39.7225 52.1969 38.3871 52.75 36.9948 52.75H15.9948C14.6024 52.75 13.267 52.1969 12.2824 51.2123C11.2979 50.2277 10.7448 48.8924 10.7448 47.5V29.125H23.8698V21.25C23.8698 16.3767 25.8057 11.7029 29.2517 8.25692C32.6976 4.81094 37.3714 2.87501 42.2447 2.87501H50.1198ZM9.43225 0.250006C12.5822 0.247454 15.6866 1.00176 18.4842 2.44943C21.2818 3.89709 23.6905 5.99572 25.5077 8.56863C22.7353 12.2143 21.2375 16.6699 21.2448 21.25V23.875H19.9323C14.7108 23.875 9.70321 21.8008 6.01109 18.1087C2.31896 14.4165 0.244751 9.40896 0.244751 4.18751V0.250006H9.43225Z" fill="url(#paint0_linear_15_228)"/>
<defs>
<linearGradient id="paint0_linear_15_228" x1="0.244751" y1="21.9062" x2="50.1198" y2="21.9062" gradientUnits="userSpaceOnUse">
<stop stop-color="#8BAC43"/>
<stop offset="1" stop-color="#36578D"/>
</linearGradient>
</defs>
</svg>
